<?xml version="1.0" encoding="UTF-8" standalone="no"?>
<!DOCTYPE svg PUBLIC "-//W3C//DTD SVG 1.1//EN" "http://www.w3.org/Graphics/SVG/1.1/DTD/svg11.dtd">
<svg width="100%" height="100%" viewBox="0 0 1000 800" version="1.1" xmlns="http://www.w3.org/2000/svg" xmlns:xlink="http://www.w3.org/1999/xlink" xml:space="preserve" xmlns:serif="http://www.serif.com/" style="fill-rule:evenodd;clip-rule:evenodd;stroke-linecap:round;stroke-linejoin:round;stroke-miterlimit:1.5;">
    <g id="Bible" transform="matrix(0.36229,0,0,0.293206,-103.886,171.404)">
        <path id="Bible-Outline" serif:id="Bible Outline" d="M1254,1014C1254,1014 1230.72,1060.86 1040,1156L890,1294L1640,1323C1683.04,1296.56 1720.16,1279.17 1757,1307C1757,1307 1799.51,1278.61 1841.23,1279.44C1895.97,1280.53 2051.64,1307.26 2139.85,1311.44C2171.31,1312.93 2231.75,1314.74 2231.75,1314.74L2535,1302C2535,1302 2325.13,1142.13 2314,1107C2314,1107 2227.03,1113.29 2204,1058C2204,1058 2098.29,1073.76 2045,1075C1966.5,1076.83 1744.34,956.192 1733,1069C1733,1069 1722.3,961.299 1436,1034C1436,1034 1378.52,1036.85 1254,1014" style="fill:rgb(168,105,20);fill-opacity:0.73;stroke:black;stroke-width:12.14px;"/>
        <path id="Right-Pages" serif:id="Right Pages" d="M2416,1211L2537,1303C2537,1303 2137.23,1327.42 1993,1296C1993,1296 1865.95,1279.6 1826.5,1280.77C1802.14,1281.49 1756.25,1306.99 1756.25,1306.99C1756.25,1306.99 1727.44,1286.04 1713,1294C1713,1294 1700.57,1262.86 1779,1205C1779,1205 1831.94,1173.31 2161,1231L2416,1211Z" style="fill:rgb(255,223,146);stroke:black;stroke-width:12.14px;"/>
        <path id="Left-Pages" serif:id="Left Pages" d="M1040.32,1156.82L1372,1188L1626,1188C1626,1188 1703.67,1204.43 1712,1294C1681.75,1300.25 1656.27,1310.89 1638.19,1323.23C1638.19,1323.23 1339.98,1309.09 890,1295L1040.32,1156.82Z" style="fill:rgb(255,228,146);stroke:black;stroke-width:12.14px;"/>
        <g id="Ribbon" transform="matrix(1,0,0,1,45,-29)">
            <path d="M1667,1320C1667,1320 1689.22,1362.84 1710,1370C1744.83,1382 1876,1392 1876,1392C1876,1392 1841.63,1364.92 1821,1360C1795.83,1354 1748.33,1360.83 1725,1356C1708.48,1352.58 1681,1331 1681,1331L1667,1320" style="fill:rgb(255,36,36);stroke:black;stroke-width:12.14px;"/>
        </g>
        <path id="Separator" d="M1734,1066L1712,1293" style="fill:none;stroke:black;stroke-width:12.14px;"/>
        <g id="Left-Pages1" serif:id="Left Pages" transform="matrix(2.76022,0,0,3.41057,35.5668,-888.126)">
            <path d="M589,645C589,645 587.633,638.85 559.605,637.049C527.323,634.974 459.671,637.037 318,634" style="fill:none;stroke:black;stroke-width:2px;"/>
            <path d="M589,644C593.763,644.036 595.602,636.656 565.618,633.571C535.954,630.519 470.251,631.777 326,629" style="fill:none;stroke:black;stroke-width:2px;"/>
            <path d="M596,643C595.538,642.231 596.11,633.35 572.4,629.865C543.043,625.551 480.994,630.309 332,623" style="fill:none;stroke:black;stroke-width:2px;"/>
            <g transform="matrix(0.995968,0,0,0.884615,5.33871,65.8846)">
                <path d="M597.069,652.391C591.736,650.16 596.534,638.902 579.187,634.133C553.472,627.063 495.543,632.914 336.016,624.13" style="fill:none;stroke:black;stroke-width:2.12px;"/>
            </g>
            <g transform="matrix(1,0,0,1,14,-10)">
                <path d="M588,652C589.92,651.697 581.868,635.513 571.319,632.909C536.093,624.214 452.729,633.84 332,623" style="fill:none;stroke:black;stroke-width:2px;"/>
            </g>
            <g transform="matrix(1,0,0,1,19,-15)">
                <path d="M586,654C579.236,644.525 579.249,634.494 558.318,632.507C544.662,631.21 516.11,630.932 468.742,630.116C435.81,629.549 395.889,625.934 337,622" style="fill:none;stroke:black;stroke-width:2px;"/>
            </g>
            <g transform="matrix(1,0,0,1,4,0)">
                <path d="M582,647C581.601,646.335 575.631,643.287 559.507,641.905C533.867,639.709 472.91,640.672 312,637" style="fill:none;stroke:black;stroke-width:2px;"/>
            </g>
        </g>
        <g id="Right-Pages1" serif:id="Right Pages" transform="matrix(2.76022,0,0,3.41057,35.5668,-888.126)">
            <g transform="matrix(-1,0,0,1,1207,-3)">
                <path d="M594,641C587.236,631.525 580.249,623.494 559.318,621.507C545.662,620.21 528.766,619.354 481.742,625.116C468.064,626.792 451.567,630.443 431.349,630.223C404.245,629.927 372.248,627.063 338,624" style="fill:none;stroke:black;stroke-width:2px;"/>
            </g>
            <g transform="matrix(-1.03125,0,0,1,1226.56,2)">
                <path d="M594,641C587.236,631.525 580.249,623.494 559.318,621.507C545.662,620.21 551.069,618.354 504.045,624.116C490.367,625.792 449.628,629.443 429.409,629.223C402.305,628.927 372.248,627.063 338,624" style="fill:none;stroke:black;stroke-width:1.97px;"/>
            </g>
            <g transform="matrix(-1.05859,0,0,0.804335,1243.8,128.421)">
                <path d="M594,641C587.236,631.525 580.249,623.494 559.318,621.507C545.662,620.21 549.548,619.354 502.525,625.116C488.846,626.792 450.623,629.2 430.404,628.979C403.3,628.683 372.248,627.063 338,624" style="fill:none;stroke:black;stroke-width:2.13px;"/>
            </g>
            <g transform="matrix(-1.08203,0,0,0.706502,1259.73,193.132)">
                <path d="M594,641C587.236,631.525 580.249,623.494 559.318,621.507C545.662,620.21 548.174,620.769 501.15,626.531C487.472,628.207 451.567,630.443 431.349,630.223C404.245,629.927 372.248,627.063 338,624" style="fill:none;stroke:black;stroke-width:2.19px;"/>
            </g>
            <g transform="matrix(-1.07031,0,0,0.413005,1258.77,378.264)">
                <path d="M594,641C587.236,631.525 583.052,618.652 562.121,616.664C548.465,615.367 533.437,626.618 486.414,632.38C472.735,634.056 450.633,637.707 430.415,637.486C403.31,637.191 369.445,634.327 335.197,631.264" style="fill:none;stroke:black;stroke-width:2.47px;"/>
            </g>
        </g>
        <g id="Left-Writing" serif:id="Left Writing" transform="matrix(2.76022,0,0,3.41057,35.5668,-888.126)">
            <path d="M604,573C600.5,571.167 593.5,567.5 588,566C582.5,564.5 576.667,564.333 571,564C565.343,563.667 558.5,563.667 554,564C550.61,564.251 547.333,565.333 544,566C539.833,566.833 533.333,568.5 529,569C525.358,569.42 521.663,568.841 518,569C514.167,569.167 509.667,570 506,570C502.65,570 499.35,569 496,569C492,569 486.5,570.167 482,570C477.619,569.838 473,568.333 469,568C465.346,567.695 461.636,568.474 458,568C454.167,567.5 448.722,565.833 446,565" style="fill:none;stroke:black;stroke-width:2px;"/>
            <g transform="matrix(1,0,0,1,-3,8)">
                <path d="M607,574C602.667,571.889 594,567.667 588,566C582.502,564.473 576.667,564.333 571,564C565.343,563.667 558.5,563.667 554,564C550.61,564.251 547.371,565.56 544,566C540.167,566.5 534.833,566.667 531,567C527.663,567.29 524.346,567.841 521,568C517.5,568.167 513.664,567.853 510,568C505.833,568.167 500.5,569 496,569C491.654,569 487.343,568.161 483,568C478.5,567.833 473,568.167 469,568C465.653,567.861 462.264,567.753 459,567C454.667,566 446.889,563.333 443,562" style="fill:none;stroke:black;stroke-width:2px;"/>
            </g>
            <g transform="matrix(1,0,0,1,-7,14)">
                <path d="M609,575C604.111,572.611 594.333,567.833 588,566C582.519,564.413 576.667,564.333 571,564C565.343,563.667 558.5,563.667 554,564C550.61,564.251 547.363,565.502 544,566C539.5,566.667 531.667,567.667 527,568C523.343,568.261 519.5,568 516,568C512.667,568 509.329,567.834 506,568C502.667,568.167 499.338,568.722 496,569C492,569.333 486.5,570.167 482,570C477.619,569.838 473,568.333 469,568C465.346,567.695 461.613,568.623 458,568C453.167,567.167 444.389,564.389 440,563" style="fill:none;stroke:black;stroke-width:2px;"/>
            </g>
            <g transform="matrix(1,0,0,1,-13,19)">
                <path d="M440,562C444.389,563.667 453.167,567 458,568C461.591,568.743 465.346,567.695 469,568C473,568.333 477.619,569.838 482,570C486.5,570.167 492,569 496,569C499.35,569 502.65,570 506,570C509.667,570 514.167,569.167 518,569C521.663,568.841 525.344,569.281 529,569C533.333,568.667 539.833,567.333 544,567C547.323,566.734 550.687,567.368 554,567C558.5,566.5 565.333,564.167 571,564C576.667,563.833 582.504,564.466 588,566C595.167,568 607.722,573.333 614,576" style="fill:none;stroke:black;stroke-width:2px;"/>
            </g>
            <g transform="matrix(1,0,0,1,-17,25)">
                <path d="M617,578C612.278,575.722 602.833,571.167 596,569C589.519,566.945 582.5,565.333 576,565C569.64,564.674 561.667,566.667 557,567C554.008,567.214 550.992,566.786 548,567C543.333,567.333 534,568.667 529,569C525.341,569.244 521.663,568.841 518,569C514.167,569.167 509.667,570 506,570C502.65,570 499.35,569 496,569C492,569 486.5,570.167 482,570C477.619,569.838 473,568.333 469,568C465.346,567.695 461.569,568.84 458,568C452.333,566.667 440.778,562.222 435,560" style="fill:none;stroke:black;stroke-width:2px;"/>
            </g>
            <g transform="matrix(1,0,0,1,-13,31)">
                <path d="M614,582C611.222,579.944 605.667,575.833 601,574C596.333,572.167 591.055,571.665 586,571C579.667,570.167 568.667,569 563,569C559.273,569 555.727,571 552,571C546.333,571 534.667,569.333 529,569C525.34,568.785 521.663,568.841 518,569C514.167,569.167 510,569.667 506,570C502,570.333 498,571 494,571C490,571 486.006,570.25 482,570C476.667,569.667 468.636,569.721 462,569C454.333,568.167 442.833,566.667 436,565C430.768,563.724 424.256,560.575 421,559" style="fill:none;stroke:black;stroke-width:2px;"/>
            </g>
        </g>
        <g id="Right-Writing" serif:id="Right Writing">
            <g transform="matrix(-3.04354,-0.357906,-0.261512,3.39523,3740.29,-660.485)">
                <path d="M459.326,563.117C461.179,562.905 464.883,562.482 467.63,562.833C471.167,563.285 476.537,565.211 480.545,565.829C484.22,566.394 488.008,565.934 491.677,566.535C495.92,567.231 501.791,569.273 506,570C509.602,570.622 513.278,571.055 516.93,570.896C520.763,570.73 524.938,569.289 529,569C533.469,568.682 538.86,569.54 543.743,568.987C548.795,568.414 554.05,566.325 559.307,565.564C565.212,564.709 573.194,563.658 579.174,563.857C584.597,564.038 591.202,565.25 595.19,566.758C598.314,567.939 601.505,571.25 603.101,572.905" style="fill:none;stroke:black;stroke-width:1.9px;"/>
            </g>
            <g transform="matrix(-3.04354,-0.357906,-0.261512,3.39523,3747.33,-632.25)">
                <path d="M456.738,560.435C457.905,560.982 460.237,562.078 462.124,562.307C464.703,562.619 468.897,561.738 472.21,562.311C475.867,562.944 480.362,565.518 484.07,566.104C487.492,566.644 491.004,565.571 494.459,565.824C498.781,566.14 505.577,567.637 510,568C513.654,568.3 517.5,568.167 521,568C524.346,567.841 527.652,567.128 531,567C534.969,566.848 540.214,567.301 544.813,567.09C549.681,566.867 555.091,566.287 560.206,565.659C565.947,564.954 573.864,562.892 579.26,562.862C583.785,562.836 588.3,564.01 592.579,565.478C596.932,566.971 602.56,570.203 605.374,571.82" style="fill:none;stroke:black;stroke-width:1.9px;"/>
            </g>
            <g transform="matrix(-3.04354,-0.357906,-0.261512,3.39523,3757.93,-610.447)">
                <path d="M431.465,560.18C432.605,558.093 435.663,562.185 441.697,562.565C447.233,562.913 454.685,561.446 456.105,561.376C459.394,561.214 465.403,564.478 468.358,564.919C473.977,565.758 478.548,566.428 483.155,567.108C487.437,567.74 492.193,568.851 496,569C499.347,569.131 502.667,568.167 506,568C509.329,567.834 512.667,568 516,568C519.5,568 523.343,568.261 527,568C531.667,567.667 538.915,566.438 544,566C548.491,565.613 553.014,565.707 557.51,565.374C562.01,565.041 566.482,563.876 571,564C576.531,564.152 585.139,564.989 590.696,566.284C594.54,567.18 593.609,566.191 598.283,567.787C601.526,568.896 606.961,573.242 609.086,574.004" style="fill:none;stroke:black;stroke-width:1.9px;"/>
            </g>
            <g transform="matrix(-3.04354,-0.357906,-0.261512,3.39523,3774.88,-591.323)">
                <path d="M433.142,560.525C435.724,561.478 440.479,563.037 446.258,563.64C450.41,564.074 456.001,563.625 457.443,563.923C461.034,564.666 464.085,565.085 467.374,565.82C470.881,566.603 474.692,568.204 478.49,568.626C483.262,569.156 491.415,568.771 496,569C499.346,569.167 502.65,570 506,570C509.667,570 514.167,569.167 518,569C521.663,568.841 525.344,569.281 529,569C533.333,568.667 539.833,567.333 544,567C547.323,566.734 550.667,566.969 554,567C558.907,567.045 566.966,566.978 573.44,567.271C580.576,567.594 589.935,567.136 596.817,568.938C603.302,570.637 610.919,575.603 614.728,578.086" style="fill:none;stroke:black;stroke-width:1.9px;"/>
            </g>
            <g transform="matrix(-3.04354,-0.357906,-0.261512,3.39523,3785.49,-569.52)">
                <path d="M618.626,580.18C615.11,577.903 608.077,573.348 602.12,571.654C594.973,569.622 583.263,568.762 575.743,567.987C569.52,567.345 561.624,567.164 557,567C554.002,566.893 550.992,566.786 548,567C543.333,567.333 534,568.667 529,569C525.341,569.244 521.663,568.841 518,569C514.167,569.167 509.667,570 506,570C502.65,570 499.35,569 496,569C492,569 486.5,570.167 482,570C477.619,569.838 473.247,569.087 469,568C464.023,566.727 457.985,563.324 452.136,562.359C445.393,561.247 434.156,561.301 428.538,561.328" style="fill:none;stroke:black;stroke-width:1.9px;"/>
            </g>
            <g transform="matrix(-3.04354,-0.357906,-0.261512,3.39523,3771.75,-550.58)">
                <path d="M415.522,559.427C420.106,560.25 429.275,561.896 436.171,563.009C444.096,564.288 455.432,565.939 463.07,567.104C469.38,568.066 476.517,569.651 482,570C486.654,570.296 491.641,569.499 495.969,569.198C499.973,568.921 503.955,568.185 507.969,568.198C512.09,568.213 516.439,569.366 520.696,569.284C525.279,569.197 530.666,567.765 535.462,567.672C540.146,567.581 544.799,568.45 549.475,568.725C555.113,569.057 563.339,569.466 569.291,569.663C574.588,569.839 579.936,569.196 585.187,569.91C590.621,570.648 597.097,572.08 601.899,574.095C606.342,575.959 611.447,579.986 614,582" style="fill:none;stroke:black;stroke-width:1.9px;"/>
            </g>
        </g>
    </g>
    <g id="Hope" transform="matrix(0.960183,-0.0280125,0.0280125,0.960183,151.882,-142.369)">
        <g id="E" transform="matrix(0.36229,0,0,0.293206,-11.8855,281.404)">
            <path d="M1323,205C1325,384.333 1281.33,653.333 1329,743C1372.81,825.412 1561.83,758 1609,743C1637.61,733.903 1638.9,666.309 1612,653C1580.67,637.5 1452.83,671.167 1421,650C1389.17,628.833 1396,548.167 1421,526C1446,503.833 1547.33,532.833 1571,517C1594.67,501.167 1587,446.333 1563,431C1539,415.667 1450.17,446.167 1427,425C1403.83,403.833 1393.17,324.167 1424,304C1454.83,283.833 1580.67,320.833 1612,304C1641.66,288.067 1643.85,213.91 1612,203C1563.83,186.5 1419.33,204.333 1323,205" style="fill:rgb(0,153,122);stroke:black;stroke-width:6.32px;"/>
        </g>
        <g id="P" transform="matrix(0.36229,0,0,0.293206,9.1145,280.404)">
            <clipPath id="_clip1">
                <path d="M3442.36,-289.357L-451.046,-903.799L-832.921,2790.53L3060.48,3404.97L3442.36,-289.357ZM1051.12,303.299C1051.86,300.948 1052.4,299.625 1052.4,299.625C1051.34,300.212 1050.94,301.501 1051.12,303.299C1047.06,316.049 1036.93,359.059 1074.13,385.572L1037.49,390.104L1054.9,410.045L1074.77,406.303C1074.77,406.303 1125.15,434.408 1129.3,363.334L1130,356.568L1136.98,352.784L1136.89,345.273C1136.4,344.954 1135.91,344.604 1135.41,344.223C1131.16,340.97 1126.75,334.619 1123.88,334.974C1117.78,335.729 1108.14,342.946 1108.09,353.112C1108.07,357.847 1088.34,347.596 1074.08,335.675C1061.09,324.812 1051.79,310.253 1051.12,303.299ZM1136.98,352.784L1137.16,368.014L1140.95,358.297L1147.83,345.629L1142.35,344.764L1139.96,340.949L1152.31,329.145L1149.92,325.33L1144.1,327.849L1137.92,333.751L1138.62,326.985L1136.23,323.17L1139.32,320.219L1142.76,313.884L1143.46,307.118L1141.07,303.303L1134.54,312.588L1131.11,318.922L1126.33,311.292L1116.08,302.797L1105.13,301.069L1104.78,304.452L1112.64,309.131L1122.89,317.626L1125.28,321.441L1111.24,322.664L1105.77,321.8L1110.89,326.047L1132.8,329.504L1136.87,343.9L1136.89,345.273C1141.11,348.041 1144.74,348.58 1144.74,348.58L1136.98,352.784ZM1079.38,334.826C1079.38,334.826 1089.09,314.18 1095.16,316.688C1095.16,316.688 1100.15,335.332 1102.62,352.247L1079.38,334.826Z"/>
            </clipPath>
            <g clip-path="url(#_clip1)">
                <path d="M956,218C940.167,290.167 948.5,653.833 962,740C966.205,766.839 1026.14,759.902 1037,735C1052.33,699.833 1024.67,571.833 1054,529C1083.33,486.167 1184.3,543.253 1219,474C1253.7,404.747 1246.83,293.333 1204,250C1161.17,206.667 1135.16,209.241 956,218Z" style="fill:rgb(84,131,0);stroke:black;stroke-width:6.32px;"/>
            </g>
        </g>
        <g id="Dove-Outline" serif:id="Dove Outline" transform="matrix(0.991942,0.126693,-0.126693,0.991942,-137.243,39.7613)">
            <path id="Dove-Outline1" serif:id="Dove Outline" d="M564,259C564,259 560.862,278.825 576,283L564,286L570,291L577,289C577,289 596.318,296.348 595,273L595,271L597,271L598,274L600,274L600,271L601,268L599,268L599,266L602,264L602,262L600,262L597,264L597,261L598,256L596,256L594,260L589,257L584,257L591,261L591,262L585,263L585,264L595,264L596,267L599,269L599,270L597,270C597,270 591.22,259.832 587,272L585,272C585,272 581.833,260.871 581,262C580.167,263.129 578.096,261.907 576,268C576,268 567.455,266.281 564,259Z" style="fill:none;stroke:black;stroke-width:2.08px;"/>
            <path id="Wing-Outline" serif:id="Wing Outline" d="M576,268C576,268 584.203,272.797 585,272" style="fill:none;stroke:black;stroke-width:2.08px;"/>
        </g>
        <g transform="matrix(0.36229,0,0,0.293206,16.5933,275.126)">
            <path d="M757,209C802.518,209 837.494,235.714 863.345,283.625C890.155,333.31 904,405.641 904,486C904,570.131 896.729,645.383 867.492,700.123C841.874,748.087 800.302,781 757,781C719.828,781 664.71,748.564 639.568,713.908C601.994,662.117 603,590.567 603,496C603,421.479 607.658,341.354 631.835,290.195C658.868,232.991 708.053,209 757,209ZM750,305C796.361,305 813,408.076 813,487C813,565.924 801.361,663 755,663C708.639,663 695,570.924 695,492C695,413.076 703.639,305 750,305Z" style="fill:rgb(255,183,0);stroke:black;stroke-width:6.32px;"/>
        </g>
        <g id="H" transform="matrix(0.36229,0,0,0.293206,37.1145,280.404)">
            <path d="M211,208C210,387.333 193.167,657.333 208,746C213.071,776.311 287.955,768.273 300,740C315.833,702.833 284.667,558.167 303,523C319.514,491.323 393.135,497.509 410,529C428.833,564.167 399.667,698.333 416,734C428.829,762.015 503.086,773.419 508,743C522,656.333 515.833,301.667 500,214C494.843,185.445 424.142,190.207 413,217C399,250.667 433.833,380.333 416,416C399.45,449.099 324.666,462.954 306,431C286.333,397.333 313.833,251.167 298,214C286.607,187.257 240,210 211,208" style="fill:rgb(168,0,0);stroke:black;stroke-width:6.32px;"/>
        </g>
    </g>
    <g id="Kids" transform="matrix(0.997343,0.0728459,-0.0728459,0.997343,-346.876,-83.8547)">
        <g id="S" transform="matrix(0.36229,0,0,0.293206,9.1145,278.404)">
            <path d="M3105,385C3137,385 3192,406.333 3201,385C3210,363.667 3174.5,288.333 3159,257C3146.81,232.362 3112.06,207.837 3085,203C3055.17,197.667 3022.83,205.5 2993,217C2967.93,226.664 2937.09,257.1 2927,282C2914.5,312.833 2896.72,361.804 2918,402C2945,453 3060.33,533.5 3091,572C3103.87,588.161 3106.83,618 3102,633C3097.17,648 3077.33,661.5 3062,662C3046.67,662.5 3020.17,651.5 3010,636C2999.83,620.5 3016.33,579.667 3001,569C2985.67,558.333 2928,550.333 2918,572C2908,593.667 2926.17,670.5 2941,699C2953.21,722.454 2982,735.167 3007,743C3032,750.833 3064.37,754.717 3091,746C3119,736.833 3157.18,716.984 3175,688C3192.83,659 3203.33,605.667 3198,572C3192.68,538.391 3166.49,510.624 3143,486C3115.5,457.167 3055.67,425.5 3033,399C3016.41,379.609 3004.17,344.333 3007,327C3009.83,309.667 3035,297 3050,295C3065,293 3088.12,300.472 3097,315C3106.17,330 3110.43,371.03 3105,385" style="fill:rgb(19,168,0);stroke:black;stroke-width:6.07px;"/>
        </g>
        <g id="D" transform="matrix(0.36229,0,0,0.293206,23.1145,280.404)">
            <clipPath id="_clip2">
                <path d="M3461,-73L-50,-73L-50,1605L3461,1605L3461,-73ZM2662.27,311.328C2678.61,384.995 2646.67,595.667 2660,653C2666.1,679.218 2724,651.667 2740,642C2753.84,633.639 2757.52,621.162 2758,605C2759.5,554.333 2760.33,398.5 2755,348C2753.1,329.974 2741.5,308.667 2726,302C2710.5,295.333 2684.27,312.661 2662.27,311.328Z"/>
            </clipPath>
            <g clip-path="url(#_clip2)">
                <path d="M2562,211C2614,210 2671.33,189.667 2718,208C2764.67,226.333 2825.32,267.624 2842,321C2863.67,390.333 2861,555.167 2848,624C2839.44,669.334 2806.91,717.057 2764,734C2718.83,751.833 2599.46,789.154 2577,731C2543.33,643.833 2548.17,283.167 2562,211" style="fill:rgb(0,52,248);stroke:black;stroke-width:6.07px;"/>
            </g>
        </g>
        <path d="M988,372C988,372 989.504,377.322 990,380C990.496,382.678 986,465 986,465C986,465 985.197,476.873 992,475C998.803,473.127 1013.82,473.947 1022,462L1022,385C1022,385 1020.66,373.858 1011,370C1001.34,366.142 1002.73,373.012 988,372" style="fill:none;stroke:black;stroke-width:2px;"/>
        <g id="I" transform="matrix(0.36229,0,0,0.293206,43.1145,280.404)">
            <path d="M2366,211C2366,384.333 2350.17,642.833 2366,731C2371.62,762.308 2455.49,771.327 2461,740C2476.33,652.833 2473.83,296.167 2458,208C2452.58,177.8 2396.67,210 2366,211" style="fill:rgb(255,125,44);stroke:black;stroke-width:6.07px;"/>
        </g>
        <g id="K" transform="matrix(0.36229,0,0,0.293206,65.1145,280.404)">
            <path d="M1973,214C1975,389.333 1963.67,652.333 1979,740C1983.94,768.238 2053.99,766.469 2065,740C2079,706.333 2060,574.667 2063,538C2063.73,529.061 2078.09,512.492 2083,520C2105,553.667 2160.83,703.833 2195,740C2216.3,762.546 2292.81,767.641 2288,737C2279.83,685 2149.33,516.667 2146,428C2142.82,343.33 2263.67,242.5 2268,205C2271.67,173.205 2196.66,182.593 2172,203C2138.17,231 2084.17,371.667 2065,373C2045.83,374.333 2072.33,237.5 2057,211C2042.97,186.749 2001,213 1973,214" style="fill:rgb(92,0,124);stroke:black;stroke-width:6.07px;"/>
        </g>
    </g>
</svg>
